<?xml version="1.0" encoding="UTF-8" standalone="no"?>
<svg
   xmlns:dc="http://purl.org/dc/elements/1.1/"
   xmlns:cc="http://creativecommons.org/ns#"
   xmlns:rdf="http://www.w3.org/1999/02/22-rdf-syntax-ns#"
   xmlns:svg="http://www.w3.org/2000/svg"
   xmlns="http://www.w3.org/2000/svg"
   xmlns:sodipodi="http://sodipodi.sourceforge.net/DTD/sodipodi-0.dtd"
   xmlns:inkscape="http://www.inkscape.org/namespaces/inkscape"
   viewBox="0 0 16 16"
   style="display:inline;enable-background:new"
   version="1.0"
   id="svg11300"
   height="16"
   width="16"
   sodipodi:docname="bibliothek-symbolic.svg"
   inkscape:version="0.92.3 (2405546, 2018-03-11)">
  <sodipodi:namedview
     pagecolor="#ffffff"
     bordercolor="#666666"
     borderopacity="1"
     objecttolerance="10"
     gridtolerance="10"
     guidetolerance="10"
     inkscape:pageopacity="0"
     inkscape:pageshadow="2"
     inkscape:window-width="1920"
     inkscape:window-height="1016"
     id="namedview18"
     showgrid="false"
     inkscape:zoom="32"
     inkscape:cx="7.1985854"
     inkscape:cy="3.9982246"
     inkscape:window-x="0"
     inkscape:window-y="27"
     inkscape:window-maximized="1"
     inkscape:current-layer="svg11300"
     fit-margin-top="1"
     fit-margin-left="1"
     fit-margin-right="1"
     fit-margin-bottom="1" />
  <title
     id="title4162">Adwaita Icon Template</title>
  <defs
     id="defs3" />
  <metadata
     id="metadata4">
    <rdf:RDF>
      <cc:Work
         rdf:about="">
        <dc:format>image/svg+xml</dc:format>
        <dc:type
           rdf:resource="http://purl.org/dc/dcmitype/StillImage" />
        <dc:creator>
          <cc:Agent>
            <dc:title>GNOME Design Team</dc:title>
          </cc:Agent>
        </dc:creator>
        <dc:source />
        <cc:license
           rdf:resource="http://creativecommons.org/licenses/by-sa/4.0/" />
        <dc:title>Adwaita Icon Template</dc:title>
        <dc:subject>
          <rdf:Bag />
        </dc:subject>
        <dc:date />
        <dc:rights>
          <cc:Agent>
            <dc:title />
          </cc:Agent>
        </dc:rights>
        <dc:publisher>
          <cc:Agent>
            <dc:title />
          </cc:Agent>
        </dc:publisher>
        <dc:identifier />
        <dc:relation />
        <dc:language />
        <dc:coverage />
        <dc:description />
        <dc:contributor>
          <cc:Agent>
            <dc:title />
          </cc:Agent>
        </dc:contributor>
      </cc:Work>
      <cc:License
         rdf:about="http://creativecommons.org/licenses/by-sa/4.0/">
        <cc:permits
           rdf:resource="http://creativecommons.org/ns#Reproduction" />
        <cc:permits
           rdf:resource="http://creativecommons.org/ns#Distribution" />
        <cc:requires
           rdf:resource="http://creativecommons.org/ns#Notice" />
        <cc:requires
           rdf:resource="http://creativecommons.org/ns#Attribution" />
        <cc:permits
           rdf:resource="http://creativecommons.org/ns#DerivativeWorks" />
        <cc:requires
           rdf:resource="http://creativecommons.org/ns#ShareAlike" />
      </cc:License>
    </rdf:RDF>
  </metadata>
  <g
     id="g1089"
     transform="matrix(0.1232541,0,0,0.1232541,2.003785,2.927415)">
    <g
       transform="matrix(0.20408163,0,0,0.20408163,0,-9.0551019)"
       id="g4">
      <path
         inkscape:connector-curvature="0"
         id="path2"
         d="m 402.025,431.629 28.668,-8.963 c 4.753,-1.48 8.643,-4.723 10.953,-9.129 2.31,-4.405 2.764,-9.448 1.279,-14.198 L 336.088,57.447 c -2.438,-7.822 -9.57,-13.077 -17.752,-13.077 -1.885,0 -3.758,0.288 -5.56,0.853 l -65.677,20.52 c -0.63,0.196 -1.24,0.426 -1.833,0.682 v -2.704 c 0,-10.263 -8.346,-18.613 -18.604,-18.613 h -69.24 c -4.392,0 -8.426,1.539 -11.611,4.094 -3.191,-2.555 -7.233,-4.094 -11.633,-4.094 H 64.855 c -10.269,0 -18.625,8.35 -18.625,18.613 v 367.908 c -2.7e-4,6.55115 2.877338,14.01919 14.000306,14 l 171.034504,-5.9e-4 c 7.9321,0 13.99974,-7.71895 13.99974,-13.9993 l 4.5e-4,-309.30011 96.674,309.3 c 1.64101,4.9085 2.52409,10.03355 6.22234,12.45171 3.92441,2.29184 9.03985,0.4692 15.34633,-1.24517 z"
         sodipodi:nodetypes="cccccscccssscsssccccccccc" />
    </g>
    <g
       transform="matrix(0.20408163,0,0,0.20408163,0,-9.0551019)"
       id="g6" />
    <g
       transform="matrix(0.20408163,0,0,0.20408163,0,-9.0551019)"
       id="g8" />
    <g
       transform="matrix(0.20408163,0,0,0.20408163,0,-9.0551019)"
       id="g10" />
    <g
       transform="matrix(0.20408163,0,0,0.20408163,0,-9.0551019)"
       id="g12" />
    <g
       transform="matrix(0.20408163,0,0,0.20408163,0,-9.0551019)"
       id="g14" />
    <g
       transform="matrix(0.20408163,0,0,0.20408163,0,-9.0551019)"
       id="g16" />
    <g
       transform="matrix(0.20408163,0,0,0.20408163,0,-9.0551019)"
       id="g18" />
    <g
       transform="matrix(0.20408163,0,0,0.20408163,0,-9.0551019)"
       id="g20" />
    <g
       transform="matrix(0.20408163,0,0,0.20408163,0,-9.0551019)"
       id="g22" />
    <g
       transform="matrix(0.20408163,0,0,0.20408163,0,-9.0551019)"
       id="g24" />
    <g
       transform="matrix(0.20408163,0,0,0.20408163,0,-9.0551019)"
       id="g26" />
    <g
       transform="matrix(0.20408163,0,0,0.20408163,0,-9.0551019)"
       id="g28" />
    <g
       transform="matrix(0.20408163,0,0,0.20408163,0,-9.0551019)"
       id="g30" />
    <g
       transform="matrix(0.20408163,0,0,0.20408163,0,-9.0551019)"
       id="g32" />
    <g
       transform="matrix(0.20408163,0,0,0.20408163,0,-9.0551019)"
       id="g34" />
  </g>
  <path
     inkscape:connector-curvature="0"
     d="M 3.71484,1 C 2.22843,1 1,2.22842 1,3.71484 v 8.57032 C 1,13.77157 2.22843,15 3.71484,15 h 8.57032 C 13.77157,15 15,13.77157 15,12.28516 V 3.71484 C 15,2.22842 13.77157,1 12.28516,1 Z m 0,1.500001 h 8.57032 c 0.727893,0 1.21484,0.486936 1.21484,1.214839 v 8.57032 c 0,0.7255 -0.48933,1.214841 -1.21484,1.214841 H 3.71484 C 2.981422,13.500001 2.5,12.931498 2.5,12.28516 V 3.71484 C 2.5,3.057548 2.993236,2.500001 3.71484,2.500001 Z"
     id="path864"
     style="color:#000000;font-style:normal;font-variant:normal;font-weight:normal;font-stretch:normal;font-size:medium;line-height:normal;font-family:sans-serif;font-variant-ligatures:normal;font-variant-position:normal;font-variant-caps:normal;font-variant-numeric:normal;font-variant-alternates:normal;font-feature-settings:normal;text-indent:0;text-align:start;text-decoration:none;text-decoration-line:none;text-decoration-style:solid;text-decoration-color:#000000;letter-spacing:normal;word-spacing:normal;text-transform:none;writing-mode:lr-tb;direction:ltr;text-orientation:mixed;dominant-baseline:auto;baseline-shift:baseline;text-anchor:start;white-space:normal;shape-padding:0;clip-rule:nonzero;display:inline;overflow:visible;visibility:visible;opacity:1;isolation:auto;mix-blend-mode:normal;color-interpolation:sRGB;color-interpolation-filters:linearRGB;solid-color:#000000;solid-opacity:1;vector-effect:none;fill:#000000;fill-opacity:1;fill-rule:nonzero;stroke:none;stroke-width:2;stroke-linecap:round;stroke-linejoin:round;stroke-miterlimit:4;stroke-dasharray:none;stroke-dashoffset:0;stroke-opacity:1;color-rendering:auto;image-rendering:auto;shape-rendering:auto;text-rendering:auto;enable-background:accumulate"
     sodipodi:nodetypes="sssssssssssccsssss" />
</svg>
